<?xml version="1.0"?>
<svg xmlns="http://www.w3.org/2000/svg" xmlns:xlink="http://www.w3.org/1999/xlink" version="1.1" id="Capa_1" x="0px" y="0px" viewBox="0 0 496 496" style="enable-background:new 0 0 496 496;" xml:space="preserve" width="512px" height="512px" class=""><g><path style="fill:#8E0218" d="M456,400v-16h-40v-24h-16v24h-32v-24h-16v24h-32v-24h-16v24h-32v-24h-16v24h-40v16h40v16h-40v16h40  v24h16v-24h32v24h16v-24h32v24h16v-24h32v24h16v-24h40v-16h-40v-16H456z M272,416v-16h32v16H272z M320,416v-16h32v16H320z M400,416  h-32v-16h32V416z" data-original="#E56565" class="active-path" data-old_color="#8e0218"/><circle style="fill:#965502" cx="200" cy="144" r="104" data-original="#FFCB57" class="" data-old_color="#443E35"/><g>
	<path style="fill:#443E35" d="M16,296v-8h368v16h16v-32H0v24c0,22.056,17.944,40,40,40h88v32H96v16h64v-16h-16v-32h16v-16H40   C26.768,320,16,309.232,16,296z" data-original="#3F3A34" class="" data-old_color="#443e35"/>
	<path style="fill:#443E35" d="M16,40c0-13.232,10.768-24,24-24h320c13.232,0,24,10.768,24,24v216h16V40c0-22.056-17.944-40-40-40   H40C17.944,0,0,17.944,0,40v216h16V40z" data-original="#3F3A34" class="" data-old_color="#443e35"/>
	<path style="fill:#443E35" d="M88,144c0,61.76,50.24,112,112,112s112-50.24,112-112S261.76,32,200,32S88,82.24,88,144z M296,144   c0,52.936-43.064,96-96,96s-96-43.064-96-96s43.064-96,96-96S296,91.064,296,144z" data-original="#3F3A34" class="" data-old_color="#443e35"/>
	<polygon style="fill:#443E35" points="237.656,181.656 275.312,144 237.656,106.344 226.344,117.656 252.688,144 226.344,170.344     " data-original="#3F3A34" class="" data-old_color="#443e35"/>
	<polygon style="fill:#443E35" points="162.344,106.344 124.688,144 162.344,181.656 173.656,170.344 147.312,144 173.656,117.656     " data-original="#3F3A34" class="" data-old_color="#443e35"/>
	
		<rect x="137.901" y="132.013" transform="matrix(-0.2577 0.9662 -0.9662 -0.2577 386.8153 -17.15)" style="fill:#443E35" width="124.189" height="15.992" data-original="#3F3A34" class="" data-old_color="#443e35"/>
	<path style="fill:#443E35" d="M456,320H216c-22.056,0-40,17.944-40,40v96c0,22.056,17.944,40,40,40h240c22.056,0,40-17.944,40-40   v-96C496,337.944,478.056,320,456,320z M480,456c0,13.232-10.768,24-24,24H216c-13.232,0-24-10.768-24-24v-96   c0-13.232,10.768-24,24-24h240c13.232,0,24,10.768,24,24V456z" data-original="#3F3A34" class="" data-old_color="#443e35"/>
	<path style="fill:#443E35" d="M448,352H224c-8.824,0-16,7.176-16,16v80c0,8.824,7.176,16,16,16h224c8.824,0,16-7.176,16-16v-80   C464,359.176,456.824,352,448,352z M224,448v-80h224l0.016,80H224z" data-original="#3F3A34" class="" data-old_color="#443e35"/>
</g></g> </svg>
